<svg version="1.1" xmlns="http://www.w3.org/2000/svg" xmlns:xlink="http://www.w3.org/1999/xlink" width="93.21480651855468" height="256.85999389648435" viewBox="-0.7300195726752281 -0.73 93.21480651855468 256.85999389648435"><g><g data-paper-data="{&quot;isPaintingLayer&quot;:true}" fill-rule="nonzero" stroke-linejoin="miter" stroke-miterlimit="10" stroke-dasharray="" stroke-dashoffset="0" style="mix-blend-mode: normal"><g data-paper-data="{&quot;origPos&quot;:null}" stroke-linecap="butt"><path d="M 54.7029 255.4 L 55.6029 245.7 L 70.4029 246.3 L 79.8029 248.6 L 87.2029 255.4 Z " fill="#ebebeb" stroke-width="1" stroke="none"/><path d="M 53.9029 247.1 L 50.2029 196.7 L 43.8029 134.7 L 73.8029 134.7 L 74.5029 197 L 74.5029 247.1 Z " fill="#80bdc4" stroke-width="1" stroke="none"/></g><path d="M 65.6029 25.7 C 65.6029 40 56.6029 51.7 45.5029 51.7 C 38.6029 51.7 33.9029 49.5 33.9029 49.5 C 33.9029 49.5 27.6029 40.2 25.6029 32.4 C 24.7029 28.9 25.0029 26.2 25.0029 22.5 C 25.0029 8.2 33.0029 3.6 44.2029 3.6 C 44.2029 3.6 61.2029 1.7 65.1029 10.2 C 66.8029 14 65.6029 11.4 65.6029 25.7 Z " fill="#0a0500" stroke="none" stroke-width="1" stroke-linecap="butt"/><g stroke-linecap="butt"><g data-paper-data="{&quot;origPos&quot;:null}"><path d="M 80.1029 113.3777 C 76.9029 113.7777 71.5029 112.0777 71.5029 112.0777 C 71.5029 112.0777 63.4029 65.1777 70.4029 63.4777 C 83.0029 60.0777 85.3029 110.0777 85.3029 110.0777 C 85.3029 110.0777 83.2029 112.9777 80.1029 113.3777 Z " data-paper-data="{&quot;origPos&quot;:null}" stroke-width="1" fill="#9b6a2d" stroke="none"/></g><path d="M 65.7029 95.0778 C 65.7029 95.0778 57.4529 63.1778 68.9529 60.9778 C 79.0529 58.9778 89.8029 88.9778 89.8029 88.9778 Z " data-paper-data="{&quot;origPos&quot;:null}" fill="#9e5011" stroke-width="1" stroke="none"/></g><g data-paper-data="{&quot;origPos&quot;:null}" stroke-linecap="butt"><path d="M 16.8029 255.4 L 17.7029 245.7 L 32.5029 246.3 L 41.9029 248.6 L 49.3029 255.4 Z " fill="#ebebeb" stroke-width="1" stroke="none"/><path d="M 18.3029 247.1 L 18.8029 194.8 L 19.5029 134.7 L 48.6029 134.7 L 42.0029 196.5 L 37.3029 247.1 Z " fill="#80bdc4" stroke-width="1" stroke="none"/></g><g data-paper-data="{&quot;origPos&quot;:null}" stroke-linecap="butt"><g data-paper-data="{&quot;origPos&quot;:null}"><path d="M 88.1029 137.1778 L 79.9029 139.5778 L 71.1029 112.4778 C 71.1029 112.4778 74.2029 108.2778 77.8029 108.5778 C 80.5029 108.7777 85.1029 109.5778 85.1029 109.5778 Z " data-paper-data="{&quot;origPos&quot;:null}" stroke-width="1" fill="#9b6a2d" stroke="none"/></g><path d="M 84.6187 159.7506 C 82.7352 160.0199 83.5058 151.0007 81.7412 150.8388 C 80.3884 150.6977 82.0004 156.2916 81.5664 157.1925 C 81.0343 158.1128 78.2929 156.6146 78.2929 156.6146 C 78.2929 156.6146 75.7578 151.5084 75.3338 148.84 C 74.2718 142.9339 79.9366 137.0271 79.9366 137.0271 L 87.2134 136.7142 C 87.2134 136.7142 91.6084 142.9827 91.753 147.3369 C 91.8397 151.3968 88.7452 156.8989 88.7452 156.8989 C 88.7452 156.8989 86.4427 159.6969 84.6187 159.7506 Z " data-paper-data="{&quot;origPos&quot;:null,&quot;index&quot;:null,&quot;origRot&quot;:0}" stroke-width="1" fill="#9b6a2d" stroke="none"/></g><path d="M 17.1029 139.8 L 16.9029 63.5 C 16.9029 63.5 32.1029 55.6 45.1029 55.4 C 58.1029 55.2 69.0363 59.4111 71.4363 60.7111 C 73.7363 61.9111 74.5029 142 74.5029 142 C 74.5029 142 57.4029 144.8 45.8029 144.7 C 34.0029 144.5 17.1029 139.8 17.1029 139.8 Z " data-paper-data="{&quot;origPos&quot;:null}" fill="#ba5f14" stroke="none" stroke-width="1" stroke-linecap="butt"/><g data-paper-data="{&quot;origPos&quot;:null}" stroke-linecap="butt"><path d="M 6.7029 116.1 C 4.2029 115.9 0.4029 113.9 0.4029 113.9 C 0.4029 113.9 6.0029 63.3 20.3029 63.6 C 31.5029 63.3 13.1029 114.9 13.1029 114.9 C 13.1029 114.9 9.2029 116.3 6.7029 116.1 Z " fill="#9b6a2d" stroke-width="1" stroke="none"/><path d="M 0.6029 90.2 C 0.6029 90.2 12.0029 61.2 19.0029 62 C 35.6029 63.8 22.9029 98.9 22.9029 98.9 Z " fill="#9e5011" stroke-width="1" stroke="none"/></g><g stroke-linecap="butt"><path d="M 2.4029 140.8 L 0.3029 113.1 C 0.3029 113.1 4.3029 111.9 6.6029 111.5 C 9.8029 110.9 13.3029 114.8 13.3029 114.8 L 10.1029 142.5 Z " stroke-width="1" fill="#9b6a2d" stroke="none"/><path d="M 4.9029 159.9 C 4.9029 159.9 0.8029 155.1 0.1029 151.1 C -0.5971 146.8 2.5029 139.8 2.5029 139.8 L 9.7029 138.7 C 9.7029 138.7 16.4029 143.4 16.5029 149.4 C 16.6029 152.1 15.1029 157.6 15.1029 157.6 C 15.1029 157.6 12.7029 159.6 12.0029 158.8 C 11.3029 158 11.9029 152.2 10.6029 152.6 C 8.9029 153.1 11.4029 161.8 9.5029 161.9 C 7.7029 162.2 4.9029 159.9 4.9029 159.9 Z " stroke-width="1" fill="#9b6a2d" stroke="none"/></g><g stroke-linecap="butt"><path d="M 37.6029 45.8 L 52.8029 49.2 L 52.7029 58.3 C 52.7029 58.3 57.6029 59.2 57.5029 62 C 57.4029 66.5 38.6029 68.9 34.7029 62 C 33.2029 58.6 36.7029 57.4 36.7029 57.4 Z " data-paper-data="{&quot;origPos&quot;:null}" stroke-width="1" fill="#9b6a2d" stroke="none"/><path d="M 33.0029 34.7 C 33.8029 37.1 33.3029 39.4 32.0029 39.8 C 30.6029 40.3 28.8029 38.8 28.0029 36.4 C 27.2029 34 27.7029 31.7 29.0029 31.3 C 30.4029 30.8 32.2029 32.4 33.0029 34.7 Z " data-paper-data="{&quot;origPos&quot;:null}" stroke-width="1" fill="#9b6a2d" stroke="none"/><path d="M 64.5029 32.5 C 64.5029 45.3 56.6029 52.1 49.8029 52.4 C 38.0029 52.6 30.4029 42.9 30.4029 30.1 C 30.4029 17.3 32.6029 7.7 47.6029 7 C 59.0029 6.4 66.4517 18.5 64.4517 32.2 Z " data-paper-data="{&quot;origPos&quot;:null}" stroke-width="1" fill="#9b6a2d" stroke="none"/></g><path d="M 52.9029 45.2 C 52.9029 45.9 50.9029 47.4 49.2029 47.4 C 47.4029 47.4 45.7029 45.5 45.7029 44.7 C 45.7029 43.9 47.9029 44.7 49.7029 44.7 C 51.4029 44.8 52.9029 44.5 52.9029 45.2 Z " fill="#000000" stroke="none" stroke-width="1" stroke-linecap="butt"/><path d="M 51.1029 31.9 C 51.1029 31.9 53.4029 36 53.3029 37.5 C 53.3029 38.2 49.9029 39.6 49.9029 39.6 " fill="none" stroke="#000000" stroke-width="1.46" stroke-linecap="round"/><g><path d="M 38.8029 26 C 38.8029 26 41.7029 25.2 43.2029 25.2 C 44.9029 25.1 46.9029 26 46.9029 26 " fill="none" stroke="#000000" stroke-width="1.46" stroke-linecap="round"/><g><path d="M 38.7029 29.2 C 38.7029 29.2 40.9029 28.4 43.2029 28.6 C 45.7029 28.8 46.1029 30.1 46.1029 30.1 " fill="none" stroke="#000000" stroke-width="1.46" stroke-linecap="round"/><path d="M 42.0029 31.1 C 42.0029 29.9 42.9029 28.9 44.1029 28.9 C 45.3029 28.9 46.2029 29.9 46.2029 31.1 C 46.2029 32.3 45.3029 33.3 44.1029 33.3 C 43.0029 33.3 42.0029 32.3 42.0029 31.1 Z " fill="#000000" stroke="none" stroke-width="1" stroke-linecap="butt"/></g></g><g><path d="M 54.2029 25.9 C 54.2029 25.9 56.5029 25.1 58.2029 25.1 C 59.7029 25.2 61.4029 25.6 61.4029 25.6 " fill="none" stroke="#000000" stroke-width="1.46" stroke-linecap="round"/><g><path d="M 54.2029 30 C 54.2029 30 54.7029 28.7 57.1029 28.5 C 59.4029 28.3 60.9029 29 60.9029 29 " fill="none" stroke="#000000" stroke-width="1.46" stroke-linecap="round"/><path d="M 59.1029 33 C 57.9029 33 57.0029 32 57.0029 30.8 C 57.0029 29.6 57.9029 28.6 59.1029 28.6 C 60.3029 28.6 61.2029 29.6 61.2029 30.8 C 61.2029 32 60.3029 33 59.1029 33 Z " fill="#000000" stroke="none" stroke-width="1" stroke-linecap="butt"/></g></g><g stroke-linecap="butt"><path d="M 64.1029 18.9 C 62.4029 20 57.3029 17.4 55.2029 17.4 C 51.5029 17.4 41.0029 17.8 37.3029 17.3 C 33.2029 16.7 32.2029 15 32.2029 10.8 C 32.2029 6.9 38.3029 0 47.2029 0 C 56.1029 0 60.2029 5.1 64.4029 7.3 C 64.4029 7.3 66.9029 13.5 66.0029 15.7 Z " stroke-width="1" fill="#0a0500" stroke="none"/><path d="M 32.0029 9.7 C 39.3029 9.7 36.0029 12.8 36.0029 18.7 C 36.0029 24.6 31.6029 31.3 29.9029 31.3 C 28.2029 31.3 26.9029 26.5 26.9029 20.6 C 26.9029 14.6 30.3029 9.7 32.0029 9.7 Z " stroke-width="1" fill="#0a0500" stroke="none"/></g></g></g></svg>